# xmcd
# Track frame offsets:
# 150
# 21345
# 37042
# 60442
# 78882
# 99527
# 122052
# 142072
# 159822
# 177795
# 192205
# 213485
# 231527
# 249110
#
# Disc length: 3564 seconds
# Revision: 0
# Processed by: cddbd v1.5.1PL0 Copyright (c) Steve Scherf et al.
# Submitted via: VisiTrax 2.9.9.209 - For more info visit www.synapsa.com
#
DISCID=b70dea0e
DTITLE=Kasey Chambers - Wayward Angel
DYEAR=2004
DGENRE=
TTITLE0=Pony
TTITLE1=Hollywood
TTITLE2=Stronger
TTITLE3=Bluebird
TTITLE4=More Than Ordinary
TTITLE5=Wayward Angel
TTITLE6=Paper Aeroplane
TTITLE7=Like A River
TTITLE8=For Sale
TTITLE9=Follow You Home
TTITLE10=Mother
TTITLE11=Guilty As Sin
TTITLE12=Lost And Found
TTITLE13=Saturated
EXTD=
EXTT0=
EXTT1=
EXTT2=
EXTT3=
EXTT4=
EXTT5=
EXTT6=
EXTT7=
EXTT8=
EXTT9=
EXTT10=
EXTT11=
EXTT12=
EXTT13=
PLAYORDER=
